<svg width="120" height="120" viewBox="0 0 120 120" fill="none" xmlns="http://www.w3.org/2000/svg">
  <rect width="120" height="120" rx="24" fill="#3B82F6"/>
  <path d="M35 45C35 41.6863 37.6863 39 41 39H55C58.3137 39 61 41.6863 61 45V55C61 58.3137 58.3137 61 55 61H41C37.6863 61 35 58.3137 35 55V45Z" fill="white"/>
  <path d="M65 45C65 41.6863 67.6863 39 71 39H79C82.3137 39 85 41.6863 85 45V79C85 82.3137 82.3137 85 79 85H71C67.6863 85 65 82.3137 65 79V45Z" fill="white" opacity="0.7"/>
  <path d="M35 67C35 63.6863 37.6863 61 41 61H55C58.3137 61 61 63.6863 61 67V79C61 82.3137 58.3137 85 55 85H41C37.6863 85 35 82.3137 35 79V67Z" fill="white" opacity="0.9"/>
</svg>
